<?xml version="1.0" encoding="utf-8"?>
<!-- Generator: Adobe Illustrator 16.0.0, SVG Export Plug-In . SVG Version: 6.00 Build 0)  -->
<!DOCTYPE svg PUBLIC "-//W3C//DTD SVG 1.1//EN" "http://www.w3.org/Graphics/SVG/1.1/DTD/svg11.dtd">
<svg version="1.1" id="Calque_1" xmlns="http://www.w3.org/2000/svg" xmlns:xlink="http://www.w3.org/1999/xlink" x="0px" y="0px"
	 width="146.546px" height="145.655px" viewBox="0 0 146.546 145.655" enable-background="new 0 0 146.546 145.655"
	 xml:space="preserve">
<g>
	<path fill-rule="evenodd" clip-rule="evenodd" fill="#FFFFFF" d="M73.906,0.052c39.385-0.918,72.868,32.157,72.639,73.13
		c-0.226,40.076-32.846,72.652-73.133,72.473c-40.286-0.181-72.399-32.867-72.649-72.942C0.513,32.512,35.195-1.509,73.906,0.052z
		 M112.18,81.5c-0.388-0.435-0.776-0.87-1.164-1.305c-3.369,2.082-6.737,4.164-10.105,6.246c0.68-2.736,2.061-4.573,3.36-6.466
		c5.761-8.388,9.815-17.35,9.578-27.827c-0.112-4.927-2.417-8.146-6.952-9.895c-7.449-2.872-13.754-0.092-19.487,4.306
		c-7.151,5.487-11.96,12.88-15.829,20.921c-1.102,2.289-2.251,4.555-3.864,7.812C66.63,69.71,65.96,65.314,64.9,61.015
		c-2.143-8.687-5.222-16.899-13.021-22.314c-7.193-4.995-18.561-3.481-20.242,7.202c-0.514,3.267-1.494,6.505-1.62,9.78
		c-0.729,18.923,7.359,34.381,19.067,48.518c4.159,5.021,8.835,5.745,14.66,4.104c16.271-4.589,29.834-14.519,44.427-22.407
		C109.818,85.006,110.858,82.993,112.18,81.5z M126.859,70.085c-0.112-3.617-1.832-5.221-5.041-5.151
		c-3.584,0.078-5.615,2.185-5.784,5.551c-0.159,3.167,1.849,4.885,5.054,4.726C124.496,75.041,126.658,73.372,126.859,70.085z"/>
	<path fill-rule="evenodd" clip-rule="evenodd" fill="#FFFFFF" d="M65.844,102.448c-0.21-1.144-0.518-1.72-0.351-2.067
		c7.843-16.333,15.167-33.002,28.464-45.941c1.525-1.482,3.326-2.802,5.219-3.763c5.069-2.576,8.112-0.858,7.442,4.694
		c-0.628,5.207-1.601,10.692-3.903,15.316c-7.31,14.676-18.732,25.239-34.168,31.204C67.823,102.172,67.008,102.216,65.844,102.448z
		"/>
	<path fill-rule="evenodd" clip-rule="evenodd" fill="#FFFFFF" d="M55.791,103.511c-10.28-10.792-17.076-22.606-18.593-36.815
		c-0.624-5.844-0.062-12.004,1.088-17.796c1.244-6.267,5.388-7.258,8.596-1.765c4.117,7.051,7.028,14.957,9.432,22.809
		c1.879,6.137,2.203,12.752,3.205,19.156C60.297,94.064,59.393,98.621,55.791,103.511z"/>
</g>
<g>
</g>
<g>
</g>
<g>
</g>
<g>
</g>
<g>
</g>
<g>
</g>
</svg>
